#!OML:ASF E:\emotionWalksFemale\Project 1\Capture day 1\Session 1\Female1.ASF
:FULLY-SPECIFIED
:DEGREES
1093
root 10.5332 15.4669 -3.97956 -180.281 -170.496 -181.867
lowerback 8.75748 4.75414 4.20199
upperback -3.70225 6.89117 -0.00742654
thorax -8.33714 3.12685 -3.41187
lowerneck -5.64169 -4.72986 -7.54991
upperneck 7.79038 -6.42281 8.35926
head 3.75663 -3.03806 3.4429
rclavicle 5.93481e-015 -3.11222e-015
rhumerus -31.0029 21.3319 -78.8873
rradius 62.7843
rwrist 16.4547
rhand -26.168 -53.7542
rfingers 7.12502
rthumb 0.383534 636.266
lclavicle 5.93481e-015 -3.11222e-015
lhumerus -73.0491 0.955423 71.9117
lradius 25.2214
lwrist -33.2252
lhand 14.8146 -37.0109
lfingers 7.12502
lthumb 39.6772 -11.6883
rfemur 8.58696 0.356948 26.3232
rtibia 46.0801
rfoot 13.6221 -14.5556
rtoes -1.29027
lfemur -21.0347 -9.41898 -22.3024
ltibia 27.0383
lfoot -11.0974 13.1705
ltoes -28.8747
1094
root 10.5309 15.4784 -3.72531 -180.442 -171.157 -180.733
lowerback 8.72867 4.48718 3.17153
upperback -3.64154 6.37988 -0.311679
thorax -8.36707 2.9249 -3.08946
lowerneck -5.80865 -4.66224 -7.46163
upperneck 7.69545 -6.30377 8.1525
head 3.73678 -2.98256 3.36928
rclavicle 1.32898e-014 1.2424e-016
rhumerus -32.8539 21.2907 -80.0459
rradius 60.9057
rwrist 16.948
rhand -25.8028 -53.9439
rfingers 7.12502
rthumb 0.736253 636.078
lclavicle 1.32898e-014 1.2424e-016
lhumerus -71.1438 0.872407 72.7907
lradius 25.47
lwrist -34.3858
lhand 12.5427 -35.74
lfingers 7.12502
lthumb 37.5339 -9.81547
rfemur 5.69168 -0.792744 24.5629
rtibia 51.1767
rfoot 12.6979 -13.776
rtoes -0.4336
lfemur -19.7259 -8.92863 -23.9846
ltibia 26.2184
lfoot -10.6858 12.7024
ltoes -29.0665
1095
root 10.5263 15.487 -3.47959 -180.629 -171.755 -179.652
lowerback 8.79246 4.23532 2.18703
upperback -3.59798 5.89981 -0.593778
thorax -8.45521 2.73386 -2.779
lowerneck -5.9101 -4.58187 -7.32231
upperneck 7.6569 -6.16854 7.8226
head 3.71661 -2.92423 3.25174
rclavicle -8.17657e-015 -1.73937e-015
rhumerus -34.6733 21.4111 -81.2024
rradius 58.9069
rwrist 17.3368
rhand -24.8159 -53.1326
rfingers 7.12502
rthumb 1.68936 636.894
lclavicle -8.17657e-015 -1.73937e-015
lhumerus -69.2888 0.610599 73.9247
lradius 25.8185
lwrist -34.7768
lhand 6.11732 -37.3742
lfingers 7.12502
lthumb 31.4351 -10.0566
rfemur 2.86165 -1.82885 22.935
rtibia 55.8379
rfoot 10.9145 -12.763
rtoes -4.42141
lfemur -18.1845 -8.42621 -25.5795
ltibia 25.1569
lfoot -10.679 11.8226
ltoes -29.758
1096
root 10.5197 15.4998 -3.24106 -180.78 -172.443 -178.67
lowerback 8.91065 3.93183 1.25717
upperback -3.62068 5.35951 -0.84631
thorax -8.63788 2.5091 -2.46232
lowerneck -5.83679 -4.3899 -7.22893
upperneck 7.58016 -5.90208 7.64839
head 3.65261 -2.79965 3.20147
rclavicle 2.43511e-015 9.34288e-015
rhumerus -36.5231 21.4157 -82.3812
rradius 56.7967
rwrist 18.2243
rhand -23.9841 -52.3224
rfingers 7.12502
rthumb 2.49272 637.712
lclavicle 2.43511e-015 9.34288e-015
lhumerus -67.5546 0.164172 75.078
lradius 26.5105
lwrist -34.881
lhand 1.84857 -37.7709
lfingers 7.12502
lthumb 27.3598 -9.73675
rfemur 0.032251 -2.89402 21.5049
rtibia 59.9787
rfoot 9.54051 -11.9571
rtoes -6.18205
lfemur -16.6631 -8.01347 -27.0182
ltibia 24.1034
lfoot -11.3809 10.6245
ltoes -29.7409
1097
root 10.5106 15.5164 -3.00441 -180.904 -173.194 -177.841
lowerback 9.01176 3.60395 0.458008
upperback -3.62014 4.80012 -1.08555
thorax -8.76533 2.27118 -2.19296
lowerneck -5.4525 -4.17531 -7.29257
upperneck 7.26559 -5.6305 7.83787
head 3.48055 -2.66929 3.29525
rclavicle -2.89635e-015 -1.50331e-014
rhumerus -38.4646 21.0651 -83.5543
rradius 54.8476
rwrist 19.4318
rhand -23.4004 -52.1875
rfingers 7.12502
rthumb 3.05639 637.855
lclavicle -2.89635e-015 -1.50331e-014
lhumerus -65.6519 -0.483087 76.1529
lradius 27.2969
lwrist -34.1384
lhand -0.586258 -38.0566
lfingers 7.12502
lthumb 25.0287 -9.67633
rfemur -2.73121 -3.89284 20.3611
rtibia 63.5791
rfoot 8.16723 -11.5741
rtoes -5.60184
lfemur -15.1678 -7.71549 -28.2579
ltibia 23.1694
lfoot -12.1357 9.54611
ltoes -29.1466
1098
root 10.5007 15.5271 -2.77235 -180.993 -173.921 -177.238
lowerback 9.14836 3.26326 -0.10404
upperback -3.50045 4.25684 -1.25717
thorax -8.76136 2.03312 -1.97878
lowerneck -5.38629 -4.04072 -7.37413
upperneck 7.00117 -5.44564 8.00224
head 3.38256 -2.57628 3.37199
rclavicle -8.03214e-015 1.2101e-014
rhumerus -40.1489 20.6853 -84.5504
rradius 53.0745
rwrist 20.3003
rhand -22.6228 -52.1725
rfingers 7.12502
rthumb 3.80735 637.882
lclavicle -8.03214e-015 1.2101e-014
lhumerus -63.3024 -1.00915 77.1222
lradius 27.7922
lwrist -32.5883
lhand -2.1391 -38.1484
lfingers 7.12502
lthumb 23.54 -9.56896
rfemur -5.46784 -4.60921 19.6211
rtibia 66.6608
rfoot 6.749 -11.4389
rtoes -4.69997
lfemur -13.7765 -7.72622 -29.2088
ltibia 22.4509
lfoot -12.3707 9.04499
ltoes -29.3501
